<?xml version="1.0" encoding="utf-8"?>
<!-- Generator: Adobe Illustrator 18.0.0, SVG Export Plug-In . SVG Version: 6.00 Build 0)  -->
<!DOCTYPE svg PUBLIC "-//W3C//DTD SVG 1.1//EN" "http://www.w3.org/Graphics/SVG/1.1/DTD/svg11.dtd">
<svg version="1.1" id="Layer_1" xmlns="http://www.w3.org/2000/svg" xmlns:xlink="http://www.w3.org/1999/xlink" x="0px" y="0px"
	 viewBox="0 0 52 70" enable-background="new 0 0 52 70" xml:space="preserve">
<g>
	<path fill="#268EC5" d="M47.9,6.1l2,0c1.1,0,2-0.9,2-2l0-2c0-1.1-0.9-2-2-2l-47.6,0c-1.1,0-2,0.9-2,2l0,2
		c0,1.1,0.9,2,2,2l2,0c0,17.7,14.4,18.4,15.2,28.9C18.8,45.5,4.4,46.2,4.4,63.9l-2,0c-1.1,0-2,0.9-2,2l0,2c0,1.1,0.9,2,2,2l47.6,0
		c1.1,0,2-0.9,2-2l0-2c0-1.1-0.9-2-2-2l-2,0c0-17.7-14.4-18.4-15.2-28.9C33.5,24.5,47.9,23.8,47.9,6.1L47.9,6.1z M41.8,62.2
		c0.5,0.7,0,1.6-0.8,1.6l-29.7,0c-0.8,0-1.3-0.8-0.9-1.5c3.9-6.5,8.8-11.3,15.1-16.1c0.4-0.3,0.9-0.3,1.3,0.1
		C33.3,52.1,37.9,56.7,41.8,62.2L41.8,62.2z M26.1,30.1L15.3,19.6c0,0,5.4,2.2,9.8,2.2c4.4,0,8.2-3.1,11.5-3.1
		C39.9,18.6,26.1,30.1,26.1,30.1L26.1,30.1z M26.1,30.1"/>
</g>
</svg>
