<?xml version="1.0" encoding="UTF-8"?>
<svg width="518px" height="502px" viewBox="0 0 518 502" version="1.1" xmlns="http://www.w3.org/2000/svg" xmlns:xlink="http://www.w3.org/1999/xlink">
    <!-- Generator: Sketch 45.1 (43504) - http://www.bohemiancoding.com/sketch -->
    <title>Untitled</title>
    <desc>Created with Sketch.</desc>
    <defs>
        <text id="text-1" font-family="LucidaGrande, Lucida Grande" font-size="64" font-weight="normal" fill="#CFF09E">
            <tspan x="2" y="482">CYSTIC FIBROSIS</tspan>
        </text>
        <filter x="-1.4%" y="-6.6%" width="102.7%" height="118.4%" filterUnits="objectBoundingBox" id="filter-2">
            <feOffset dx="0" dy="2" in="SourceAlpha" result="shadowOffsetOuter1"></feOffset>
            <feGaussianBlur stdDeviation="2" in="shadowOffsetOuter1" result="shadowBlurOuter1"></feGaussianBlur>
            <feColorMatrix values="0 0 0 0 0   0 0 0 0 0   0 0 0 0 0  0 0 0 0.5 0" type="matrix" in="shadowBlurOuter1"></feColorMatrix>
        </filter>
    </defs>
    <g id="Page-1" stroke="none" stroke-width="1" fill="none" fill-rule="evenodd">
        <g id="Group-2" transform="translate(2.000000, 0.000000)">
            <g id="dreamhouse-logo" fill-rule="nonzero">
                <g id="Group" transform="translate(0.000000, 54.000000)" fill="#507C5C">
                    <path d="M356.257,209.059 C348.646,209.059 342.477,202.89 342.477,195.279 C342.477,147.584 303.674,108.78 255.978,108.78 C208.282,108.78 169.479,147.583 169.479,195.279 C169.479,202.89 163.31,209.059 155.699,209.059 C148.088,209.059 141.919,202.89 141.919,195.279 C141.919,132.387 193.086,81.22 255.978,81.22 C318.87,81.22 370.037,132.387 370.037,195.279 C370.037,202.889 363.867,209.059 356.257,209.059 Z" id="Shape"></path>
                    <path d="M169.044,365.211 L55.809,365.211 C25.036,365.211 0,340.176 0,309.402 L0,165.399 C0,74.528 73.93,0.598 164.801,0.598 L169.044,0.598 C199.818,0.598 224.853,25.634 224.853,56.407 C224.853,64.018 218.684,70.187 211.073,70.187 C203.462,70.187 197.293,64.018 197.293,56.407 C197.293,40.83 184.621,28.158 169.044,28.158 L164.801,28.158 C89.127,28.158 27.56,89.724 27.56,165.399 L27.56,309.402 C27.56,324.979 40.232,337.651 55.809,337.651 L169.044,337.651 C184.62,337.651 197.293,324.979 197.293,309.402 L197.293,161.071 C197.293,153.46 203.462,147.291 211.073,147.291 C218.684,147.291 224.853,153.46 224.853,161.071 L224.853,309.403 C224.852,340.176 199.816,365.211 169.044,365.211 Z" id="Shape"></path>
                </g>
                <path d="M82.949,350.311 C75.189,350.311 68.9,344.02 68.9,336.262 L68.9,219.401 C68.9,175.895 98.017,139.063 137.789,127.371 C146.848,124.707 155.95,131.369 155.95,140.811 L155.95,336.263 C155.95,344.023 149.659,350.312 141.901,350.312 L82.949,350.311 L82.949,350.311 Z" id="Shape" fill="#CFF09E"></path>
                <g id="Group" transform="translate(55.000000, 54.000000)" fill="#507C5C">
                    <path d="M86.903,310.091 L27.949,310.091 C12.604,310.091 0.12,297.606 0.12,282.262 L0.12,165.401 C0.12,117.068 32.517,73.787 78.903,60.15 C81.501,59.387 84.177,58.999 86.86,58.999 C102.227,58.999 114.732,71.475 114.732,86.811 L114.732,282.262 C114.731,297.606 102.247,310.091 86.903,310.091 Z M86.86,86.558 C86.81,86.558 86.747,86.569 86.677,86.59 C51.94,96.801 27.681,129.209 27.681,165.399 L27.681,282.261 C27.681,282.41 27.801,282.53 27.95,282.53 L86.902,282.53 C87.051,282.53 87.171,282.41 87.171,282.261 L87.171,86.81 C87.145,86.678 87.016,86.558 86.86,86.558 Z" id="Shape"></path>
                    <path d="M401.191,365.211 L287.956,365.211 C257.182,365.211 232.147,340.175 232.147,309.402 L232.147,161.071 C232.147,153.46 238.316,147.291 245.927,147.291 C253.538,147.291 259.707,153.46 259.707,161.071 L259.707,309.403 C259.707,324.98 272.379,337.652 287.956,337.652 L401.191,337.652 C416.768,337.652 429.44,324.98 429.44,309.403 L429.44,165.399 C429.44,89.723 367.874,28.158 292.199,28.158 L287.956,28.158 C272.38,28.158 259.707,40.83 259.707,56.407 C259.707,64.018 253.538,70.187 245.927,70.187 C238.316,70.187 232.147,64.018 232.147,56.407 C232.147,25.633 257.183,0.598 287.956,0.598 L292.199,0.598 C383.07,0.598 457,74.528 457,165.399 L457,309.402 C457,340.176 431.964,365.211 401.191,365.211 Z" id="Shape"></path>
                </g>
                <path d="M429.05,350.311 C436.81,350.311 443.099,344.02 443.099,336.262 L443.099,219.401 C443.099,175.895 413.982,139.063 374.21,127.371 C365.151,124.707 356.049,131.369 356.049,140.811 L356.049,336.263 C356.049,344.023 362.34,350.312 370.098,350.312 L429.05,350.311 L429.05,350.311 Z" id="Shape" fill="#CFF09E"></path>
                <g id="Group" transform="translate(242.000000, 0.000000)" fill="#507C5C">
                    <path d="M187.05,364.091 L128.098,364.091 C112.753,364.091 100.269,351.606 100.269,336.262 L100.269,140.81 C100.269,125.476 112.772,112.998 128.141,112.998 C130.824,112.998 133.5,113.385 136.098,114.149 C182.484,127.786 214.881,171.066 214.881,219.4 L214.881,336.262 C214.88,351.606 202.395,364.091 187.05,364.091 Z M128.139,140.558 C127.985,140.558 127.854,140.677 127.834,140.715 L127.829,336.261 C127.829,336.41 127.949,336.53 128.098,336.53 L187.05,336.53 C187.199,336.53 187.319,336.41 187.319,336.261 L187.319,219.399 C187.319,183.208 163.059,150.801 128.323,140.591 C128.253,140.571 128.19,140.558 128.139,140.558 Z" id="Shape"></path>
                    <path d="M14,162.78 C6.389,162.78 0.22,156.611 0.22,149 L0.22,14.569 C0.22,6.958 6.389,0.789 14,0.789 C21.611,0.789 27.78,6.958 27.78,14.569 L27.78,149 C27.78,156.611 21.611,162.78 14,162.78 Z" id="Shape"></path>
                </g>
            </g>
            <g id="CYSTIC-FIBROSIS" fill-opacity="1" fill="#CFF09E">
                <use filter="url(#filter-2)" xlink:href="#text-1"></use>
                <use xlink:href="#text-1"></use>
            </g>
        </g>
    </g>
</svg>