<?xml version="1.0" encoding="utf-8"?>
<!-- Generator: Adobe Illustrator 18.0.0, SVG Export Plug-In . SVG Version: 6.00 Build 0)  -->
<!DOCTYPE svg PUBLIC "-//W3C//DTD SVG 1.1//EN" "http://www.w3.org/Graphics/SVG/1.1/DTD/svg11.dtd">
<svg version="1.1" id="Layer_1" xmlns="http://www.w3.org/2000/svg" xmlns:xlink="http://www.w3.org/1999/xlink" x="0px" y="0px"
	 viewBox="0 0 60 72" enable-background="new 0 0 60 72" xml:space="preserve">
<g>
	<path fill="#268EC5" d="M34.5,11.8V5.9h3.1c1.6,0,2.9-1.3,2.9-2.9c0-1.6-1.3-2.9-2.9-2.9H22.5
		c-1.6,0-2.9,1.3-2.9,2.9c0,1.6,1.3,2.9,2.9,2.9h3.1v5.9C11.1,13.9,0,26.5,0,41.7C0,58.4,13.4,72,30,72s30-13.6,30-30.3
		C60,26.5,48.9,13.9,34.5,11.8z M30,64.4c-12.4,0-22.5-10.2-22.5-22.7C7.5,29.2,17.6,19,30,19s22.5,10.2,22.5,22.7
		C52.5,54.2,42.4,64.4,30,64.4z"/>
	<path fill="#268EC5" d="M44.6,48.5l-11.9-8.1V26.5c0-0.3-0.1-0.7-0.4-0.9c-0.2-0.2-0.6-0.4-0.9-0.4h-3.3
		c-0.3,0-0.7,0.1-0.9,0.4c-0.2,0.2-0.4,0.6-0.4,0.9v16.4c0,0.3,0.1,0.7,0.4,0.9c0.1,0.1,0.2,0.2,0.3,0.2l13.8,9.4
		c0.2,0.1,0.4,0.2,0.7,0.2c0.1,0,0.2,0,0.3,0c0.3-0.1,0.6-0.3,0.8-0.6l1.7-2.8C45.3,49.6,45.1,48.9,44.6,48.5z"/>
</g>
</svg>
